/* XPM */
static char * East_xpm[] = {
"32 32 7 1",
" 	c #FFFFFF",
".	c #686868",
"+	c #000000",
"@	c #5C5C5C",
"#	c #DADADA",
"$	c #CACACA",
"%	c #EBEBEB",
"                                ",
"                                ",
"                                ",
"                                ",
"                                ",
"                                ",
"                                ",
"        .+++++++++++++@         ",
"        .+++++++++++++@         ",
"        .+++++++++++++@         ",
"        .++#                    ",
"        .++#                    ",
"        .++#                    ",
"        .++#                    ",
"        .++#                    ",
"        .++#                    ",
"        .+++++++++++++$         ",
"        .+++++++++++++$         ",
"        .+++++++++++++$         ",
"        .++#                    ",
"        .++#                    ",
"        .++#                    ",
"        .++#                    ",
"        .++#                    ",
"        .++#                    ",
"        .++#                    ",
"        .++#                    ",
"        .++++++++++++++%        ",
"        .++++++++++++++%        ",
"        .++++++++++++++%        ",
"                                ",
"                                "};
