/* XPM */
static char * North_xpm[] = {
"32 32 47 1",
" 	c #FFFFFF",
".	c #686868",
"+	c #000000",
"@	c #9E9E9E",
"#	c #DEDEDE",
"$	c #7C7C7C",
"%	c #0D0D0D",
"&	c #E7E7E7",
"*	c #8D8D8D",
"=	c #1C1C1C",
"-	c #A8A8A8",
";	c #7A7A7A",
">	c #E5E5E5",
",	c #6C6C6C",
"'	c #D3D3D3",
")	c #D6D6D6",
"!	c #FDFDFD",
"~	c #7F7F7F",
"{	c #C8C8C8",
"]	c #E0E0E0",
"^	c #535353",
"/	c #FAFAFA",
"(	c #919191",
"_	c #BCBCBC",
":	c #E9E9E9",
"<	c #404040",
"[	c #F5F5F5",
"}	c #A1A1A1",
"|	c #AEAEAE",
"1	c #F0F0F0",
"2	c #2A2A2A",
"3	c #262626",
"4	c #EFEFEF",
"5	c #B0B0B0",
"6	c #9F9F9F",
"7	c #F6F6F6",
"8	c #424242",
"9	c #E8E8E8",
"0	c #BDBDBD",
"a	c #8F8F8F",
"b	c #565656",
"c	c #DFDFDF",
"d	c #C9C9C9",
"e	c #7D7D7D",
"f	c #6A6A6A",
"g	c #A9A9A9",
"h	c #D5D5D5",
"                                ",
"                                ",
"                                ",
"                                ",
"                                ",
"                                ",
"                                ",
"      .+++@         #++$        ",
"      .+++%&        #++$        ",
"      .++++*        #++$        ",
"      .++=++#       #++$        ",
"      .++-++;       #++$        ",
"      .++>,++'      #++$        ",
"      .++&)++.!     #++$        ",
"      .++& ~++{     #++$        ",
"      .++& ]++^/    #++$        ",
"      .++&  (++_    #++$        ",
"      .++&  :%+<[   #++$        ",
"      .++&   }++|   #++$        ",
"      .++&   12+34  #++$        ",
"      .++&    5++6  #++$        ",
"      .++&    78+%9 #++$        ",
"      .++&     0++a #++$        ",
"      .++&     /b++c#++$        ",
"      .++&      d++e#++$        ",
"      .++&      !f++g++$        ",
"      .++&       h++=++$        ",
"      .++&        e++++$        ",
"      .++&        c++++$        ",
"      .++&         a+++$        ",
"                                ",
"                                "};
