/* XPM */
static char * South_xpm[] = {
"32 32 85 1",
" 	c #FFFFFF",
".	c #F8F8F8",
"+	c #C9C9C9",
"@	c #979797",
"#	c #636363",
"$	c #3D3D3D",
"%	c #262626",
"&	c #555555",
"*	c #717171",
"=	c #888888",
"-	c #B0B0B0",
";	c #D3D3D3",
">	c #F0F0F0",
",	c #CDCDCD",
"'	c #454545",
")	c #000000",
"!	c #C0C0C0",
"~	c #E9E9E9",
"{	c #1C1C1C",
"]	c #474747",
"^	c #B9B9B9",
"/	c #E5E5E5",
"(	c #F7F7F7",
"_	c #FDFDFD",
":	c #EEEEEE",
"<	c #E3E3E3",
"[	c #C8C8C8",
"}	c #A1A1A1",
"|	c #666666",
"1	c #F1F1F1",
"2	c #ADADAD",
"3	c #585858",
"4	c #7C7C7C",
"5	c #C5C5C5",
"6	c #656565",
"7	c #D7D7D7",
"8	c #7A7A7A",
"9	c #AFAFAF",
"0	c #2E2E2E",
"a	c #D8D8D8",
"b	c #EFEFEF",
"c	c #323232",
"d	c #686868",
"e	c #D0D0D0",
"f	c #EBEBEB",
"g	c #FEFEFE",
"h	c #383838",
"i	c #3B3B3B",
"j	c #8B8B8B",
"k	c #BEBEBE",
"l	c #A0A0A0",
"m	c #2A2A2A",
"n	c #0D0D0D",
"o	c #9F9F9F",
"p	c #F5F5F5",
"q	c #7E7E7E",
"r	c #353535",
"s	c #5D5D5D",
"t	c #EAEAEA",
"u	c #C4C4C4",
"v	c #6E6E6E",
"w	c #858585",
"x	c #ACACAC",
"y	c #E7E7E7",
"z	c #FCFCFC",
"A	c #4B4B4B",
"B	c #C6C6C6",
"C	c #7D7D7D",
"D	c #BABABA",
"E	c #4D4D4D",
"F	c #B4B4B4",
"G	c #8D8D8D",
"H	c #D4D4D4",
"I	c #E6E6E6",
"J	c #F6F6F6",
"K	c #FBFBFB",
"L	c #848484",
"M	c #737373",
"N	c #808080",
"O	c #E0E0E0",
"P	c #818181",
"Q	c #6A6A6A",
"R	c #878787",
"S	c #B2B2B2",
"T	c #E2E2E2",
"                                ",
"                                ",
"                                ",
"                                ",
"                                ",
"                                ",
"                                ",
"        .+@#$%&*=-;>            ",
"       ,')))))))))))>           ",
"      !)))))))))))))>           ",
"     ~{))]^/(_(:<[}|1           ",
"     2))3>                      ",
"     4))5                       ",
"     6))7                       ",
"     8))^                       ",
"     9))0a                      ",
"     bc)))d2efg                 ",
"      ah))))))ijkb              ",
"       :lm)))))))nop            ",
"         .;2qr)))))s1           ",
"             gtuv)))w           ",
"                _x)))y          ",
"                 zA))B          ",
"                  C))D          ",
"                 _E))B          ",
"                 F)))<          ",
"     GjFHI:JgK:eL)))M           ",
"     4)))))))))))))'y           ",
"     4))))))))))))Nt            ",
"     .Ou}PQA{h3RST              ",
"                                ",
"                                "};
