/* XPM */
static char * Weast_xpm[] = {
"32 32 114 2",
"  	c #FFFFFF",
". 	c #777777",
"+ 	c #000000",
"@ 	c #D0D0D0",
"# 	c #F6F6F6",
"$ 	c #0D0D0D",
"% 	c #919191",
"& 	c #8B8B8B",
"* 	c #C2C2C2",
"= 	c #B2B2B2",
"- 	c #A4A4A4",
"; 	c #D5D5D5",
"> 	c #3D3D3D",
", 	c #FDFDFD",
"' 	c #FCFCFC",
") 	c #353535",
"! 	c #E6E6E6",
"~ 	c #DADADA",
"{ 	c #606060",
"] 	c #ADADAD",
"^ 	c #E4E4E4",
"/ 	c #E2E2E2",
"( 	c #424242",
"_ 	c #FEFEFE",
": 	c #F8F8F8",
"< 	c #1C1C1C",
"[ 	c #F0F0F0",
"} 	c #707070",
"| 	c #818181",
"1 	c #C0C0C0",
"2 	c #BDBDBD",
"3 	c #949494",
"4 	c #7D7D7D",
"5 	c #CECECE",
"6 	c #F5F5F5",
"7 	c #BFBFBF",
"8 	c #8E8E8E",
"9 	c #8A8A8A",
"0 	c #C4C4C4",
"a 	c #B4B4B4",
"b 	c #A2A2A2",
"c 	c #D4D4D4",
"d 	c #B3B3B3",
"e 	c #383838",
"f 	c #323232",
"g 	c #E9E9E9",
"h 	c #DCDCDC",
"i 	c #5D5D5D",
"j 	c #ABABAB",
"k 	c #E3E3E3",
"l 	c #E1E1E1",
"m 	c #4B4B4B",
"n 	c #FAFAFA",
"o 	c #222222",
"p 	c #EEEEEE",
"q 	c #6E6E6E",
"r 	c #8D8D8D",
"s 	c #161616",
"t 	c #BEBEBE",
"u 	c #BCBCBC",
"v 	c #999999",
"w 	c #CDCDCD",
"x 	c #F4F4F4",
"y 	c #787878",
"z 	c #8C8C8C",
"A 	c #888888",
"B 	c #C7C7C7",
"C 	c #B7B7B7",
"D 	c #A0A0A0",
"E 	c #B0B0B0",
"F 	c #FBFBFB",
"G 	c #EBEBEB",
"H 	c #DEDEDE",
"I 	c #5A5A5A",
"J 	c #AAAAAA",
"K 	c #D7D7D7",
"L 	c #E0E0E0",
"M 	c #535353",
"N 	c #2A2A2A",
"O 	c #6C6C6C",
"P 	c #BBBBBB",
"Q 	c #9D9D9D",
"R 	c #858585",
"S 	c #CBCBCB",
"T 	c #737373",
"U 	c #898989",
"V 	c #878787",
"W 	c #CACACA",
"X 	c #BABABA",
"Y 	c #9E9E9E",
"Z 	c #D2D2D2",
"` 	c #AEAEAE",
" .	c #2E2E2E",
"..	c #EDEDED",
"+.	c #565656",
"@.	c #A9A9A9",
"#.	c #D6D6D6",
"$.	c #DFDFDF",
"%.	c #ECECEC",
"&.	c #696969",
"*.	c #B9B9B9",
"=.	c #A1A1A1",
"-.	c #F3F3F3",
";.	c #9C9C9C",
">.	c #EFEFEF",
",.	c #515151",
"'.	c #A7A7A7",
").	c #B6B6B6",
"!.	c #A5A5A5",
"~.	c #6A6A6A",
"{.	c #A8A8A8",
"].	c #F2F2F2",
"^.	c #D1D1D1",
"/.	c #686868",
"                                                                ",
"                                                                ",
"                                                                ",
"                                                                ",
"                                                                ",
"                                                                ",
"                                                                ",
"  . + + @                 # $ + + %                   & + + *   ",
"  = + + -                 ; + + + > ,               ' ) + + !   ",
"  ~ + + {                 ] + + + + ^               / + + ( _   ",
"  : < + + [               } + | < + 1               2 + + 3     ",
"    4 + + 5             6 + + 7 4 + 8               9 + + 0     ",
"    a + + b             c + + ^ d + e ,           ' f + + g     ",
"    h + + i             j + e , ~ + + k           l + + m _     ",
"    n o + + p           q + r   : s + t           u + + v       ",
"      | + + w         x + + t     y + z           A + + B       ",
"      C + + D         c + + k     E + ) '       F f + + G       ",
"      H + + I         J + e '     K + + /       L + + M         ",
"      F N + + p       O + z       # $ + 2       P + + Q         ",
"        R + + S     x + + t         T + U       V + + W         ",
"        X + + Y     Z + + k         ` +  .F   F  .+ + ..        ",
"        L + + +.    @.+ ) '         #.+ + L   $.+ + I           ",
"        F  .+ + %.  &.+ &           6 + + P   *.+ + =.          ",
"          U + + W -.+ + 2             } + V   R + + w           ",
"          2 + + ;.Z + + /             j + N # N + + >.          ",
"          / + + ,.'.+ f '             c + + ).+ + {             ",
"          ' e + + > + 9               x + + > + + !.            ",
"            r + + + + u                 ~.+ + + + @             ",
"            7 + + + + l                 {.+ + + + ].            ",
"            ^ + + +  .'                 ^.+ + + /.              ",
"                                                                ",
"                                                                "};
